<svg data-v-423bf9ae="" xmlns="http://www.w3.org/2000/svg" viewBox="0 0 818 90" class="iconLeft"><!----><!----><!----><g data-v-423bf9ae="" id="e097e493-3b61-4ef9-88cb-f04e578be487" fill="black" transform="matrix(6.920415164015481,0,0,6.920415164015481,104.11765242527406,2.8200681852380782)"><path d="M5.60 5.80L5.60 3.86C5.07 3.70 4.35 3.57 3.82 3.57C2.97 3.57 1.93 3.74 1.08 3.99L0.85 4.05L1.16 5.08L1.16 10.26L2.48 10.26L2.48 4.89C2.90 4.77 3.37 4.70 3.82 4.70C4.06 4.70 4.34 4.73 4.62 4.79L5.14 5.80ZM9.55 3.57C7.67 3.57 6.44 4.86 6.44 7C6.44 9.21 7.83 10.43 10.08 10.43C10.70 10.43 11.48 10.29 12.04 10.08L12.04 8.95C11.47 9.14 10.72 9.28 10.08 9.28C8.81 9.28 7.92 8.74 7.81 7.43L12.56 7.43C12.57 7.29 12.57 7.15 12.57 7C12.57 4.86 11.44 3.57 9.55 3.57ZM11.27 6.36L7.83 6.36C7.95 5.25 8.61 4.65 9.55 4.65C10.44 4.65 11.13 5.22 11.27 6.36ZM18.80 8.34C18.80 7.03 17.88 6.34 16.25 6.34C15.41 6.34 15.08 6.01 15.08 5.52C15.08 5.12 15.40 4.70 16.52 4.70C16.91 4.70 17.33 4.76 17.74 4.83L18.23 5.80L18.69 5.80L18.69 3.92C18.00 3.71 17.29 3.57 16.52 3.57C14.60 3.57 13.73 4.56 13.73 5.60C13.73 6.90 14.67 7.60 16.25 7.60C17.12 7.60 17.46 7.92 17.46 8.43C17.46 8.86 17.12 9.28 15.97 9.28C15.29 9.28 14.53 9.16 13.76 8.92L13.76 10.07C14.50 10.29 15.20 10.43 15.97 10.43C17.92 10.43 18.80 9.42 18.80 8.34ZM24.49 10.28L24.49 9.13C24.22 9.23 23.88 9.28 23.58 9.28C22.67 9.28 22.26 8.86 22.26 8.09L22.26 4.86L24.49 4.86L24.49 3.72L22.26 3.72L22.26 1.76L20.94 1.96L20.94 3.72L19.54 3.72L19.54 4.86L20.94 4.86L20.94 8.09C20.94 9.55 21.91 10.43 23.58 10.43C23.86 10.43 24.22 10.36 24.49 10.28ZM30.97 7.07L30.97 5.99L25.73 5.99L25.73 7.07ZM35.38 3.57C33.50 3.57 32.27 4.86 32.27 7C32.27 9.21 33.66 10.43 35.91 10.43C36.53 10.43 37.31 10.29 37.87 10.08L37.87 8.95C37.30 9.14 36.55 9.28 35.91 9.28C34.64 9.28 33.75 8.74 33.64 7.43L38.39 7.43C38.40 7.29 38.40 7.15 38.40 7C38.40 4.86 37.27 3.57 35.38 3.57ZM37.10 6.36L33.66 6.36C33.78 5.25 34.44 4.65 35.38 4.65C36.27 4.65 36.96 5.22 37.10 6.36ZM44.74 10.12L44.74 8.99C44.17 9.17 43.54 9.28 42.98 9.28C41.65 9.28 40.89 8.54 40.89 7C40.89 5.45 41.65 4.70 42.98 4.70C43.22 4.70 43.48 4.73 43.76 4.79L44.30 5.80L44.74 5.80L44.74 3.86C44.23 3.70 43.51 3.57 42.98 3.57C40.80 3.57 39.52 4.84 39.52 7C39.52 9.14 40.80 10.43 42.98 10.43C43.51 10.43 44.23 10.29 44.74 10.12ZM52.26 7C52.26 4.87 51.04 3.57 49.10 3.57C47.15 3.57 45.92 4.87 45.92 7C45.92 9.11 47.15 10.43 49.10 10.43C51.04 10.43 52.26 9.11 52.26 7ZM50.89 7C50.89 8.50 50.19 9.28 49.10 9.28C47.99 9.28 47.29 8.50 47.29 7C47.29 5.50 47.99 4.70 49.10 4.70C50.19 4.70 50.89 5.50 50.89 7ZM64.61 10.26L64.61 9.80L63.59 9.28L63.59 6.02C63.59 4.51 62.55 3.57 60.86 3.57C59.92 3.57 59.21 3.91 58.86 4.45C58.46 3.91 57.71 3.57 56.64 3.57C55.79 3.57 54.75 3.74 53.90 3.99L53.68 4.05L53.98 5.08L53.98 10.26L55.30 10.26L55.30 4.89C55.72 4.77 56.20 4.70 56.64 4.70C57.62 4.70 58.13 5.15 58.13 6.02L58.13 10.26L59.44 10.26L59.44 6.02C59.44 5.18 59.95 4.70 60.86 4.70C61.78 4.70 62.27 5.18 62.27 6.02L62.27 10.26ZM76.61 10.26L76.61 9.80L75.59 9.28L75.59 6.02C75.59 4.51 74.55 3.57 72.86 3.57C71.92 3.57 71.20 3.91 70.85 4.45C70.46 3.91 69.71 3.57 68.64 3.57C67.79 3.57 66.75 3.74 65.90 3.99L65.67 4.05L65.98 5.08L65.98 10.26L67.30 10.26L67.30 4.89C67.72 4.77 68.19 4.70 68.64 4.70C69.62 4.70 70.13 5.15 70.13 6.02L70.13 10.26L71.44 10.26L71.44 6.02C71.44 5.18 71.95 4.70 72.86 4.70C73.78 4.70 74.27 5.18 74.27 6.02L74.27 10.26ZM80.49 3.57C78.61 3.57 77.38 4.86 77.38 7C77.38 9.21 78.76 10.43 81.02 10.43C81.63 10.43 82.42 10.29 82.98 10.08L82.98 8.95C82.40 9.14 81.66 9.28 81.02 9.28C79.74 9.28 78.86 8.74 78.75 7.43L83.50 7.43C83.51 7.29 83.51 7.15 83.51 7C83.51 4.86 82.38 3.57 80.49 3.57ZM82.21 6.36L78.76 6.36C78.89 5.25 79.55 4.65 80.49 4.65C81.38 4.65 82.07 5.22 82.21 6.36ZM89.67 5.80L89.67 3.86C89.14 3.70 88.42 3.57 87.89 3.57C87.04 3.57 86.00 3.74 85.15 3.99L84.92 4.05L85.23 5.08L85.23 10.26L86.55 10.26L86.55 4.89C86.97 4.77 87.44 4.70 87.89 4.70C88.13 4.70 88.41 4.73 88.69 4.79L89.21 5.80ZM95.73 10.12L95.73 8.99C95.16 9.17 94.53 9.28 93.97 9.28C92.64 9.28 91.88 8.54 91.88 7C91.88 5.45 92.64 4.70 93.97 4.70C94.21 4.70 94.47 4.73 94.75 4.79L95.28 5.80L95.73 5.80L95.73 3.86C95.21 3.70 94.50 3.57 93.97 3.57C91.78 3.57 90.51 4.84 90.51 7C90.51 9.14 91.78 10.43 93.97 10.43C94.50 10.43 95.21 10.29 95.73 10.12ZM100.02 3.57C98.14 3.57 96.91 4.86 96.91 7C96.91 9.21 98.29 10.43 100.55 10.43C101.16 10.43 101.95 10.29 102.51 10.08L102.51 8.95C101.93 9.14 101.19 9.28 100.55 9.28C99.27 9.28 98.39 8.74 98.28 7.43L103.03 7.43C103.04 7.29 103.04 7.15 103.04 7C103.04 4.86 101.91 3.57 100.02 3.57ZM101.74 6.36L98.29 6.36C98.42 5.25 99.08 4.65 100.02 4.65C100.91 4.65 101.60 5.22 101.74 6.36Z"></path></g><!----><g data-v-423bf9ae="" id="6ee5833b-5b52-4123-a5f0-b2c3d3435662" transform="matrix(2.8125,0,0,2.8125,0,0)" stroke="none" fill="black"><path d="M9.571 20.464l8.064 4.47 8.065-4.47v-8.939l-8.065-4.469-8.064 4.469z"></path><path d="M32 0H0v32h32l-5.054-5.172H5.054V5.172h21.892z"></path></g><!----></svg>